<svg xmlns="http://www.w3.org/2000/svg" xmlns:xlink="http://www.w3.org/1999/xlink" width="500" zoomAndPan="magnify" viewBox="0 0 375 374.999991" height="500" preserveAspectRatio="xMidYMid meet" version="1.0"><defs><g/><clipPath id="99a31f8fbe"><rect x="0" width="335" y="0" height="375"/></clipPath></defs><g transform="matrix(1, 0, 0, 1, 18, 0)"><g clip-path="url(#99a31f8fbe)"><g fill="#35220c" fill-opacity="1"><g transform="translate(1.182863, 317.022464)"><g><path d="M 178.359375 -94.40625 C 181.023438 -94.40625 183.070312 -93.070312 184.5 -90.40625 C 185.9375 -87.738281 186.65625 -84.359375 186.65625 -80.265625 C 186.65625 -75.140625 185.9375 -71.191406 184.5 -68.421875 C 183.070312 -65.648438 180.820312 -63.753906 177.75 -62.734375 C 165.445312 -58.429688 151.914062 -55.972656 137.15625 -55.359375 C 133.050781 -38.335938 125.3125 -24.597656 113.9375 -14.140625 C 102.5625 -3.691406 90.003906 1.53125 76.265625 1.53125 C 55.554688 1.53125 40.484375 -6.359375 31.046875 -22.140625 C 21.617188 -37.921875 16.90625 -60.78125 16.90625 -90.71875 C 16.90625 -117.164062 20.1875 -145.914062 26.75 -176.96875 C 33.3125 -208.03125 42.894531 -234.476562 55.5 -256.3125 C 68.113281 -278.144531 83.132812 -289.0625 100.5625 -289.0625 C 109.988281 -289.0625 117.570312 -285.007812 123.3125 -276.90625 C 129.050781 -268.8125 131.921875 -258.304688 131.921875 -245.390625 C 131.921875 -228.585938 128.742188 -211.878906 122.390625 -195.265625 C 116.035156 -178.660156 105.476562 -161.238281 90.71875 -143 C 104.457031 -141.96875 115.628906 -136.273438 124.234375 -125.921875 C 132.847656 -115.566406 137.972656 -102.804688 139.609375 -87.640625 C 149.242188 -88.253906 160.722656 -90.304688 174.046875 -93.796875 C 175.285156 -94.203125 176.722656 -94.40625 178.359375 -94.40625 Z M 93.484375 -258.625 C 89.378906 -258.625 84.914062 -252.523438 80.09375 -240.328125 C 75.28125 -228.128906 70.820312 -211.570312 66.71875 -190.65625 C 62.625 -169.75 59.550781 -146.890625 57.5 -122.078125 C 71.03125 -146.890625 81.84375 -168.773438 89.9375 -187.734375 C 98.039062 -206.703125 102.09375 -223.566406 102.09375 -238.328125 C 102.09375 -244.890625 101.320312 -249.910156 99.78125 -253.390625 C 98.25 -256.878906 96.148438 -258.625 93.484375 -258.625 Z M 77.5 -31.0625 C 83.851562 -31.0625 89.488281 -33.722656 94.40625 -39.046875 C 99.320312 -44.378906 102.601562 -52.070312 104.25 -62.125 C 97.894531 -66.425781 93.023438 -72.0625 89.640625 -79.03125 C 86.253906 -86 84.5625 -93.378906 84.5625 -101.171875 C 84.5625 -104.046875 84.972656 -107.941406 85.796875 -112.859375 L 84.875 -112.859375 C 76.46875 -112.859375 69.445312 -108.707031 63.8125 -100.40625 C 58.175781 -92.101562 55.359375 -80.976562 55.359375 -67.03125 C 55.359375 -55.351562 57.5625 -46.4375 61.96875 -40.28125 C 66.375 -34.132812 71.550781 -31.0625 77.5 -31.0625 Z M 77.5 -31.0625 "/></g></g></g><g fill="#35220c" fill-opacity="1"><g transform="translate(146.640608, 317.022464)"><g><path d="M 36.59375 1.53125 C 28.800781 1.53125 23.316406 -2.566406 20.140625 -10.765625 C 16.960938 -18.960938 15.375 -32.082031 15.375 -50.125 C 15.375 -76.78125 19.164062 -102.097656 26.75 -126.078125 C 28.59375 -132.023438 31.613281 -136.378906 35.8125 -139.140625 C 40.019531 -141.910156 45.914062 -143.296875 53.5 -143.296875 C 57.601562 -143.296875 60.472656 -142.785156 62.109375 -141.765625 C 63.753906 -140.742188 64.578125 -138.796875 64.578125 -135.921875 C 64.578125 -132.640625 63.039062 -125.257812 59.96875 -113.78125 C 57.914062 -105.582031 56.273438 -98.40625 55.046875 -92.25 C 53.816406 -86.101562 52.789062 -78.519531 51.96875 -69.5 C 58.738281 -87.125 66.320312 -101.472656 74.71875 -112.546875 C 83.125 -123.617188 91.375 -131.507812 99.46875 -136.21875 C 107.570312 -140.9375 115.007812 -143.296875 121.78125 -143.296875 C 135.101562 -143.296875 141.765625 -136.632812 141.765625 -123.3125 C 141.765625 -120.644531 140.84375 -114.1875 139 -103.9375 C 137.351562 -95.738281 136.53125 -90.613281 136.53125 -88.5625 C 136.53125 -81.382812 139.09375 -77.796875 144.21875 -77.796875 C 149.957031 -77.796875 157.335938 -82.304688 166.359375 -91.328125 C 169.023438 -93.992188 171.796875 -95.328125 174.671875 -95.328125 C 177.335938 -95.328125 179.4375 -94.144531 180.96875 -91.78125 C 182.507812 -89.425781 183.28125 -86.304688 183.28125 -82.421875 C 183.28125 -74.828125 181.226562 -68.878906 177.125 -64.578125 C 171.382812 -58.628906 164.671875 -53.550781 156.984375 -49.34375 C 149.296875 -45.144531 141.148438 -43.046875 132.546875 -43.046875 C 121.671875 -43.046875 113.414062 -45.8125 107.78125 -51.34375 C 102.144531 -56.882812 99.328125 -64.367188 99.328125 -73.796875 C 99.328125 -76.878906 99.632812 -79.957031 100.25 -83.03125 C 100.65625 -87.125 100.859375 -89.890625 100.859375 -91.328125 C 100.859375 -94.609375 99.734375 -96.25 97.484375 -96.25 C 94.410156 -96.25 90.359375 -92.816406 85.328125 -85.953125 C 80.304688 -79.085938 75.335938 -70.015625 70.421875 -58.734375 C 65.503906 -47.460938 61.503906 -35.570312 58.421875 -23.0625 C 56.171875 -13.425781 53.554688 -6.914062 50.578125 -3.53125 C 47.609375 -0.15625 42.945312 1.53125 36.59375 1.53125 Z M 36.59375 1.53125 "/></g></g></g></g></g></svg>